<svg width="85" height="80" viewBox="0 0 85 80" fill="none" xmlns="http://www.w3.org/2000/svg">
<g filter="url(#filter0_dd_181_40)">
<path d="M79.4742 24.928L76.255 27.9038H8.82365L5.52588 24.928V17.8016C5.52588 16.1764 6.84341 14.8588 8.46864 14.8588H76.5315C78.1567 14.8588 79.4742 16.1764 79.4742 17.8016V24.928Z" fill="#FFBD54"/>
<path d="M76.5312 14.8588H73.0356C74.6609 14.8588 75.9784 16.1764 75.9784 17.8016V27.9038L79.4739 24.928V17.8016C79.4739 16.1764 78.1565 14.8588 76.5312 14.8588Z" fill="#D99830"/>
<path d="M79.4742 24.928H5.52588V67.805C5.52588 69.4302 6.84341 70.7477 8.46864 70.7477H76.5315C78.1567 70.7477 79.4742 69.4302 79.4742 67.805V24.928Z" fill="#F4FBFF"/>
<path d="M75.9787 24.928H5.52588V28.1614H72.2267C74.2989 28.1614 75.9787 29.8412 75.9787 31.9134V67.8051C75.9787 69.4303 74.6612 70.7479 73.036 70.7479H76.5315C78.1567 70.7479 79.4742 69.4303 79.4742 67.8051V24.928H75.9787Z" fill="#DAF1F4"/>
<path d="M42.4999 6.54597C44.0014 6.54597 45.2186 5.32878 45.2186 3.82729C45.2186 2.3258 44.0014 1.10861 42.4999 1.10861C40.9984 1.10861 39.7812 2.3258 39.7812 3.82729C39.7812 5.32878 40.9984 6.54597 42.4999 6.54597Z" fill="#365E7D"/>
<path d="M55.5321 18.7775H29.4682C28.8518 18.7775 28.3523 19.277 28.3523 19.8934C28.3523 20.5099 28.8518 21.0094 29.4682 21.0094H55.5321C56.1485 21.0094 56.648 20.5099 56.648 19.8934C56.648 19.277 56.1484 18.7775 55.5321 18.7775Z" fill="black"/>
<path d="M15.9787 31.3819H11.4575C10.841 31.3819 10.3416 31.8814 10.3416 32.4978C10.3416 33.1143 10.841 33.6138 11.4575 33.6138H15.9787C16.5952 33.6138 17.0947 33.1143 17.0947 32.4978C17.0947 31.8814 16.595 31.3819 15.9787 31.3819Z" fill="black"/>
<path d="M25.573 31.3819H21.0517C20.4353 31.3819 19.9358 31.8814 19.9358 32.4978C19.9358 33.1143 20.4353 33.6138 21.0517 33.6138H25.573C26.1894 33.6138 26.6889 33.1143 26.6889 32.4978C26.6889 31.8814 26.1894 31.3819 25.573 31.3819Z" fill="black"/>
<path d="M35.1667 31.3819H30.6455C30.029 31.3819 29.5295 31.8814 29.5295 32.4978C29.5295 33.1143 30.029 33.6138 30.6455 33.6138H35.1667C35.7832 33.6138 36.2826 33.1143 36.2826 32.4978C36.2826 31.8814 35.783 31.3819 35.1667 31.3819Z" fill="black"/>
<path d="M44.7607 31.3819H40.2395C39.623 31.3819 39.1235 31.8814 39.1235 32.4978C39.1235 33.1143 39.623 33.6138 40.2395 33.6138H44.7607C45.3772 33.6138 45.8766 33.1143 45.8766 32.4978C45.8766 31.8814 45.3772 31.3819 44.7607 31.3819Z" fill="black"/>
<path d="M54.3547 31.3819H49.8335C49.217 31.3819 48.7175 31.8814 48.7175 32.4978C48.7175 33.1143 49.217 33.6138 49.8335 33.6138H54.3547C54.9712 33.6138 55.4706 33.1143 55.4706 32.4978C55.4706 31.8814 54.971 31.3819 54.3547 31.3819Z" fill="black"/>
<path d="M63.9485 31.3819H59.4272C58.8108 31.3819 58.3113 31.8814 58.3113 32.4978C58.3113 33.1143 58.8108 33.6138 59.4272 33.6138H63.9485C64.5649 33.6138 65.0644 33.1143 65.0644 32.4978C65.0644 31.8814 64.5649 31.3819 63.9485 31.3819Z" fill="black"/>
<path d="M73.5425 31.3819H69.0212C68.4048 31.3819 67.9053 31.8814 67.9053 32.4978C67.9053 33.1143 68.4048 33.6138 69.0212 33.6138H73.5425C74.1589 33.6138 74.6584 33.1143 74.6584 32.4978C74.6584 31.8814 74.1587 31.3819 73.5425 31.3819Z" fill="black"/>
<path d="M15.9787 38.9519H11.4575C10.841 38.9519 10.3416 39.4514 10.3416 40.0678C10.3416 40.6842 10.841 41.1837 11.4575 41.1837H15.9787C16.5952 41.1837 17.0947 40.6842 17.0947 40.0678C17.0947 39.4514 16.595 38.9519 15.9787 38.9519Z" fill="black"/>
<path d="M25.573 38.9519H21.0517C20.4353 38.9519 19.9358 39.4514 19.9358 40.0678C19.9358 40.6842 20.4353 41.1837 21.0517 41.1837H25.573C26.1894 41.1837 26.6889 40.6842 26.6889 40.0678C26.6889 39.4514 26.1894 38.9519 25.573 38.9519Z" fill="black"/>
<path d="M35.1667 38.9519H30.6455C30.029 38.9519 29.5295 39.4514 29.5295 40.0678C29.5295 40.6842 30.029 41.1837 30.6455 41.1837H35.1667C35.7832 41.1837 36.2826 40.6842 36.2826 40.0678C36.2826 39.4514 35.783 38.9519 35.1667 38.9519Z" fill="black"/>
<path d="M44.7607 38.9519H40.2395C39.623 38.9519 39.1235 39.4514 39.1235 40.0678C39.1235 40.6842 39.623 41.1837 40.2395 41.1837H44.7607C45.3772 41.1837 45.8766 40.6842 45.8766 40.0678C45.8766 39.4514 45.3772 38.9519 44.7607 38.9519Z" fill="black"/>
<path d="M54.3547 38.9519H49.8335C49.217 38.9519 48.7175 39.4514 48.7175 40.0678C48.7175 40.6842 49.217 41.1837 49.8335 41.1837H54.3547C54.9712 41.1837 55.4706 40.6842 55.4706 40.0678C55.4706 39.4514 54.971 38.9519 54.3547 38.9519Z" fill="black"/>
<path d="M63.9485 38.9519H59.4272C58.8108 38.9519 58.3113 39.4514 58.3113 40.0678C58.3113 40.6842 58.8108 41.1837 59.4272 41.1837H63.9485C64.5649 41.1837 65.0644 40.6842 65.0644 40.0678C65.0644 39.4514 64.5649 38.9519 63.9485 38.9519Z" fill="black"/>
<path d="M73.5425 38.9519H69.0212C68.4048 38.9519 67.9053 39.4514 67.9053 40.0678C67.9053 40.6842 68.4048 41.1837 69.0212 41.1837H73.5425C74.1589 41.1837 74.6584 40.6842 74.6584 40.0678C74.6584 39.4514 74.1587 38.9519 73.5425 38.9519Z" fill="black"/>
<path d="M15.9787 46.5218H11.4575C10.841 46.5218 10.3416 47.0213 10.3416 47.6378C10.3416 48.2542 10.841 48.7537 11.4575 48.7537H15.9787C16.5952 48.7537 17.0947 48.2542 17.0947 47.6378C17.0947 47.0213 16.595 46.5218 15.9787 46.5218Z" fill="black"/>
<path d="M25.573 46.5218H21.0517C20.4353 46.5218 19.9358 47.0213 19.9358 47.6378C19.9358 48.2542 20.4353 48.7537 21.0517 48.7537H25.573C26.1894 48.7537 26.6889 48.2542 26.6889 47.6378C26.6889 47.0213 26.1894 46.5218 25.573 46.5218Z" fill="black"/>
<path d="M35.1667 46.5218H30.6455C30.029 46.5218 29.5295 47.0213 29.5295 47.6378C29.5295 48.2542 30.029 48.7537 30.6455 48.7537H35.1667C35.7832 48.7537 36.2826 48.2542 36.2826 47.6378C36.2826 47.0213 35.783 46.5218 35.1667 46.5218Z" fill="black"/>
<path d="M44.7607 46.5218H40.2395C39.623 46.5218 39.1235 47.0213 39.1235 47.6378C39.1235 48.2542 39.623 48.7537 40.2395 48.7537H44.7607C45.3772 48.7537 45.8766 48.2542 45.8766 47.6378C45.8766 47.0213 45.3772 46.5218 44.7607 46.5218Z" fill="black"/>
<path d="M54.3547 46.5218H49.8335C49.217 46.5218 48.7175 47.0213 48.7175 47.6378C48.7175 48.2542 49.217 48.7537 49.8335 48.7537H54.3547C54.9712 48.7537 55.4706 48.2542 55.4706 47.6378C55.4706 47.0213 54.971 46.5218 54.3547 46.5218Z" fill="black"/>
<path d="M63.9485 46.5218H59.4272C58.8108 46.5218 58.3113 47.0213 58.3113 47.6378C58.3113 48.2542 58.8108 48.7537 59.4272 48.7537H63.9485C64.5649 48.7537 65.0644 48.2542 65.0644 47.6378C65.0644 47.0213 64.5649 46.5218 63.9485 46.5218Z" fill="black"/>
<path d="M73.5425 46.5218H69.0212C68.4048 46.5218 67.9053 47.0213 67.9053 47.6378C67.9053 48.2542 68.4048 48.7537 69.0212 48.7537H73.5425C74.1589 48.7537 74.6584 48.2542 74.6584 47.6378C74.6584 47.0213 74.1587 46.5218 73.5425 46.5218Z" fill="black"/>
<path d="M15.9787 54.0917H11.4575C10.841 54.0917 10.3416 54.5911 10.3416 55.2076C10.3416 55.824 10.841 56.3235 11.4575 56.3235H15.9787C16.5952 56.3235 17.0947 55.824 17.0947 55.2076C17.0947 54.5911 16.595 54.0917 15.9787 54.0917Z" fill="black"/>
<path d="M25.573 54.0917H21.0517C20.4353 54.0917 19.9358 54.5911 19.9358 55.2076C19.9358 55.824 20.4353 56.3235 21.0517 56.3235H25.573C26.1894 56.3235 26.6889 55.824 26.6889 55.2076C26.6889 54.5911 26.1894 54.0917 25.573 54.0917Z" fill="black"/>
<path d="M35.1667 54.0917H30.6455C30.029 54.0917 29.5295 54.5911 29.5295 55.2076C29.5295 55.824 30.029 56.3235 30.6455 56.3235H35.1667C35.7832 56.3235 36.2826 55.824 36.2826 55.2076C36.2826 54.5911 35.783 54.0917 35.1667 54.0917Z" fill="black"/>
<path d="M44.7607 54.0917H40.2395C39.623 54.0917 39.1235 54.5911 39.1235 55.2076C39.1235 55.824 39.623 56.3235 40.2395 56.3235H44.7607C45.3772 56.3235 45.8766 55.824 45.8766 55.2076C45.8766 54.5911 45.3772 54.0917 44.7607 54.0917Z" fill="black"/>
<path d="M54.3547 54.0917H49.8335C49.217 54.0917 48.7175 54.5911 48.7175 55.2076C48.7175 55.824 49.217 56.3235 49.8335 56.3235H54.3547C54.9712 56.3235 55.4706 55.824 55.4706 55.2076C55.4706 54.5911 54.971 54.0917 54.3547 54.0917Z" fill="black"/>
<path d="M63.9485 54.0917H59.4272C58.8108 54.0917 58.3113 54.5911 58.3113 55.2076C58.3113 55.824 58.8108 56.3235 59.4272 56.3235H63.9485C64.5649 56.3235 65.0644 55.824 65.0644 55.2076C65.0644 54.5911 64.5649 54.0917 63.9485 54.0917Z" fill="black"/>
<path d="M73.5425 54.0917H69.0212C68.4048 54.0917 67.9053 54.5911 67.9053 55.2076C67.9053 55.824 68.4048 56.3235 69.0212 56.3235H73.5425C74.1589 56.3235 74.6584 55.824 74.6584 55.2076C74.6584 54.5911 74.1587 54.0917 73.5425 54.0917Z" fill="black"/>
<path d="M15.9787 61.6616H11.4575C10.841 61.6616 10.3416 62.1611 10.3416 62.7775C10.3416 63.394 10.841 63.8935 11.4575 63.8935H15.9787C16.5952 63.8935 17.0947 63.394 17.0947 62.7775C17.0947 62.1611 16.595 61.6616 15.9787 61.6616Z" fill="black"/>
<path d="M25.573 61.6616H21.0517C20.4353 61.6616 19.9358 62.1611 19.9358 62.7775C19.9358 63.394 20.4353 63.8935 21.0517 63.8935H25.573C26.1894 63.8935 26.6889 63.394 26.6889 62.7775C26.6889 62.1611 26.1894 61.6616 25.573 61.6616Z" fill="black"/>
<path d="M35.1667 61.6616H30.6455C30.029 61.6616 29.5295 62.1611 29.5295 62.7775C29.5295 63.394 30.029 63.8935 30.6455 63.8935H35.1667C35.7832 63.8935 36.2826 63.394 36.2826 62.7775C36.2826 62.1611 35.783 61.6616 35.1667 61.6616Z" fill="black"/>
<path d="M76.5316 13.7429H71.987C71.7983 13.5892 73.4189 14.4378 46.2422 0.873824C43.959 -0.264564 41.1481 -0.317682 38.758 0.873824C11.57 14.4434 13.2019 13.5892 13.0132 13.7429H8.46859C6.23065 13.7429 4.40991 15.5637 4.40991 17.8016V67.805C4.40991 70.0429 6.23065 71.8636 8.46859 71.8636H76.5314C78.7694 71.8636 80.59 70.0429 80.59 67.805V62.6691C80.59 62.0526 80.0905 61.5531 79.474 61.5531C78.8576 61.5531 78.3581 62.0526 78.3581 62.6691V67.805C78.3581 68.8124 77.5386 69.6318 76.5314 69.6318H8.46859C7.46114 69.6318 6.64175 68.8123 6.64175 67.805V26.0439H78.3583V58.2073C78.3583 58.8237 78.8578 59.3232 79.4742 59.3232C80.0906 59.3232 80.5901 58.8237 80.5901 58.2073V17.8016C80.5901 15.5637 78.7695 13.7429 76.5316 13.7429ZM44.1028 3.82729C44.1028 4.7111 43.3838 5.43005 42.5 5.43005C41.6162 5.43005 40.8973 4.7111 40.8973 3.82729C40.8973 2.99898 41.5289 2.31544 42.3357 2.23287C42.4453 2.23004 42.5548 2.23004 42.6644 2.23287C43.4713 2.31544 44.1028 2.99884 44.1028 3.82729ZM6.64175 17.8016C6.64175 16.7943 7.46129 15.9749 8.46859 15.9749H25.681C26.2974 15.9749 26.7969 15.4754 26.7969 14.859C26.7969 14.2426 26.2974 13.7431 25.681 13.7431H17.9518L38.6895 3.40191C38.4352 5.69475 40.2386 7.6619 42.5 7.6619C44.7637 7.6619 46.5645 5.69222 46.3105 3.40191L67.0482 13.7429H30.1426C29.5262 13.7429 29.0267 14.2424 29.0267 14.8588C29.0267 15.4753 29.5262 15.9748 30.1426 15.9748H76.5314C77.5387 15.9748 78.3581 16.7943 78.3581 17.8015V23.8119H6.64175V17.8016Z" fill="black"/>
</g>
<defs>
<filter id="filter0_dd_181_40" x="0.409912" y="0" width="84.1802" height="79.8636" filterUnits="userSpaceOnUse" color-interpolation-filters="sRGB">
<feFlood flood-opacity="0" result="BackgroundImageFix"/>
<feColorMatrix in="SourceAlpha" type="matrix" values="0 0 0 0 0 0 0 0 0 0 0 0 0 0 0 0 0 0 127 0" result="hardAlpha"/>
<feOffset dy="4"/>
<feGaussianBlur stdDeviation="2"/>
<feColorMatrix type="matrix" values="0 0 0 0 0 0 0 0 0 0 0 0 0 0 0 0 0 0 0.25 0"/>
<feBlend mode="normal" in2="BackgroundImageFix" result="effect1_dropShadow_181_40"/>
<feColorMatrix in="SourceAlpha" type="matrix" values="0 0 0 0 0 0 0 0 0 0 0 0 0 0 0 0 0 0 127 0" result="hardAlpha"/>
<feOffset dy="4"/>
<feGaussianBlur stdDeviation="2"/>
<feColorMatrix type="matrix" values="0 0 0 0 0 0 0 0 0 0 0 0 0 0 0 0 0 0 0.25 0"/>
<feBlend mode="normal" in2="effect1_dropShadow_181_40" result="effect2_dropShadow_181_40"/>
<feBlend mode="normal" in="SourceGraphic" in2="effect2_dropShadow_181_40" result="shape"/>
</filter>
</defs>
</svg>
